<svg xmlns="http://www.w3.org/2000/svg" height="40" viewBox="0 96 960 960" width="40"><path d="M106.652 982.696q-30.994 0-53.374-22.38-22.38-22.38-22.38-53.374V409.724q0-30.392 22.38-53.152t53.374-22.76h136.015l76.203-87.617h260.609v142.659h121.485v125.261H844.21v392.827q0 30.994-22.76 53.374-22.76 22.38-53.153 22.38H106.652ZM437.594 832q73 0 123.167-50.167 50.166-50.166 50.166-123.166 0-73.667-50.166-123.5-50.167-49.833-123.167-49.833-73.667 0-123.5 49.833t-49.833 123.5q0 73 49.833 123.166Q363.927 832 437.594 832Zm0-66.666q-46 0-76.333-30.667-30.334-30.667-30.334-76 0-46 30.334-76.334Q391.594 552 437.594 552q45.334 0 76 30.333 30.667 30.334 30.667 76.334 0 45.333-30.667 76-30.666 30.667-76 30.667Zm330.037-357.073v-86.073h-86.153v-69.934h86.153v-86.501h69.775v86.501h86.819v69.934h-86.819v86.073h-69.775Z"/></svg>